<?xml version="1.0" encoding="UTF-8"?>
<svg width="17px" height="16px" viewBox="0 0 17 16" version="1.1" xmlns="http://www.w3.org/2000/svg" xmlns:xlink="http://www.w3.org/1999/xlink">
    <title>4534379A-A69A-4536-A263-7439DEFBC615</title>
    <g id="V2.0" stroke="none" stroke-width="1" fill="none" fill-rule="evenodd">
        <g id="Projects-Share" transform="translate(-851.000000, -326.000000)" fill="#2A172D">
            <g id="Group-2" transform="translate(436.000000, 296.000000)">
                <g id="Icon/close" transform="translate(415.500000, 30.000000)">
                    <path d="M12.7148374,2.21896502 L7.99928121,6.93477309 L3.28477885,2.21980292 C2.99156959,1.92659367 2.51516752,1.92659367 2.21961543,2.22063867 L2.15247939,2.29783362 C1.9286963,2.59323314 1.95113882,3.01598851 2.22044904,3.28529874 L6.93402972,7.99910149 L2.22044904,12.7139342 C1.92665607,13.0077272 1.92665607,13.4841326 2.21961543,13.7785943 C2.36518677,13.9226994 2.55611578,13.9991502 2.75319695,13.9991502 L2.86997178,13.9900686 C3.02380211,13.965993 3.16839025,13.8946199 3.28256313,13.7827771 L8.00020431,9.06435299 L12.7145615,13.7794112 C12.8593181,13.9226994 13.0502471,13.9991502 13.2473283,13.9991502 C13.4437384,13.9991502 13.6339783,13.9225806 13.7766944,13.7827771 L13.8447989,13.7046212 C14.0718289,13.4059998 14.0493864,12.9832445 13.7800762,12.7139342 L9.06453271,7.99910149 L13.7789102,3.28529874 C14.0727031,2.99150576 14.0727031,2.51510038 13.7797438,2.22063867 C13.484332,1.92673332 13.0085755,1.92673332 12.7148374,2.21896502 Z" id="X"></path>
                </g>
            </g>
        </g>
    </g>
</svg>