<?xml version="1.0" encoding="UTF-8"?>
<svg width="59px" height="54px" viewBox="0 0 59 54" version="1.1" xmlns="http://www.w3.org/2000/svg" xmlns:xlink="http://www.w3.org/1999/xlink">
    <title>5CCB097B-5B07-4A89-A5C9-2B03549FD767</title>
    <g id="V2.0" stroke="none" stroke-width="1" fill="none" fill-rule="evenodd">
        <g id="Datasets-Empty-State" transform="translate(-694.000000, -244.000000)" fill="#000000" fill-rule="nonzero">
            <path d="M723.5,264 L732.530171,272.706617 C733.15661,273.31061 733.15661,274.289927 732.530171,274.893919 C732.216874,275.19584 731.806454,275.346876 731.395878,275.346876 C730.985302,275.346876 730.574882,275.19584 730.261585,274.893919 L730.261585,274.893919 L725.104083,269.921213 L725.104083,296.453392 C725.104083,297.3075 724.385848,298 723.5,298 C722.614152,298 721.895917,297.3075 721.895917,296.453392 L721.895917,296.453392 L721.895917,269.921213 L716.738415,274.893919 C716.11182,275.497761 715.096423,275.497761 714.469829,274.893919 C713.84339,274.289927 713.84339,273.31061 714.469829,272.706617 L714.469829,272.706617 L723.5,264 Z M724.237966,244 C734.826969,244 743.441706,252.690661 743.441706,263.372988 C743.441706,263.607185 743.437432,263.842612 743.428732,264.078656 C745.809759,264.471139 748.000913,265.611478 749.72151,267.377418 C751.835739,269.547542 753,272.418562 753,275.461725 C753,281.823974 747.869194,287 741.562527,287 C741.326866,287 741.084337,286.992147 740.839977,286.976596 C740.613932,286.992301 740.406813,287 740.209615,287 L740.209615,287 L732.384891,287 C731.521769,287 730.821961,286.294024 730.821961,285.423295 C730.821961,284.552566 731.521769,283.846591 732.384891,283.846591 L732.384891,283.846591 L740.209615,283.846591 C740.357666,283.846591 740.522201,283.8392 740.712378,283.82411 L740.712378,283.82411 L740.830819,283.814564 L740.949412,283.82334 C741.15821,283.838738 741.364413,283.846591 741.562527,283.846591 C746.145544,283.846591 749.87414,280.085134 749.87414,275.461725 C749.87414,273.250489 749.028112,271.164589 747.492198,269.587884 C745.957962,268.013181 743.909058,267.123051 741.722635,267.08117 L741.722635,267.08117 L739.995628,267.048219 L740.200305,265.317847 C740.276925,264.670228 740.315846,264.015834 740.315846,263.372988 C740.315846,254.429501 733.10332,247.153409 724.237966,247.153409 C716.147208,247.153409 709.289241,253.250514 708.286005,261.335744 L708.286005,261.335744 L708.12666,262.619127 L706.847926,262.712435 C701.396292,263.110307 697.12586,267.744956 697.12586,273.263731 C697.12586,279.099078 701.831898,283.846591 707.616265,283.846591 C707.752564,283.846591 707.898783,283.842895 708.076292,283.835197 L708.076292,283.835197 L708.153828,283.831809 L708.231364,283.83612 C708.356825,283.843203 708.471756,283.846591 708.582565,283.846591 L708.582565,283.846591 L716.245654,283.846591 C717.108776,283.846591 717.808584,284.552566 717.808584,285.423295 C717.808584,286.294024 717.108776,287 716.245654,287 L716.245654,287 L708.582565,287 C708.437567,287 708.290889,286.996305 708.136275,286.98876 C707.944725,286.996459 707.7779,287 707.616265,287 C700.108248,287 694,280.837918 694,273.263731 C694,269.770036 695.30178,266.440942 697.665407,263.889883 C699.728658,261.663095 702.43097,260.208185 705.376422,259.716389 C707.087555,250.674049 714.988442,244 724.237966,244 Z" id="Combined-Shape"></path>
        </g>
    </g>
</svg>