<?xml version="1.0" encoding="UTF-8"?>
<svg width="30px" height="42px" viewBox="0 0 30 42" version="1.1" xmlns="http://www.w3.org/2000/svg" xmlns:xlink="http://www.w3.org/1999/xlink">
    <title>D0F83D18-4471-4FAB-BAD6-1ADC717D55F4</title>
    <g id="Wires-Skinned" stroke="none" stroke-width="1" fill="none" fill-rule="evenodd">
        <g id="Datasets" transform="translate(-154.000000, -367.000000)" fill="#2A172D">
            <g id="Group-3-Copy-2" transform="translate(141.236162, 356.000000)">
                <g id="Icon/document" transform="translate(0.000000, 4.000000)">
                    <g id="noun_blank-document_3383805" transform="translate(13.125000, 7.000000)">
                        <path d="M29.311275,8.39327045 L21.1976386,0.279634091 C21.0186488,0.100615497 20.7758775,0 20.5227273,0 L0.954545455,0 C0.427364557,0 0,0.427364557 0,0.954545455 L0,41.0454545 C0,41.5726354 0.427364557,42 0.954545455,42 L28.6363636,42 C29.1635445,42 29.5909091,41.5726354 29.5909091,41.0454545 L29.5909091,9.06818182 C29.5909091,8.81503163 29.4902936,8.5722603 29.311275,8.39327045 Z M21.4772727,3.25891364 L26.3318045,8.11363636 L21.4772727,8.11363636 L21.4772727,3.25891364 Z M1.90909091,40.0909091 L1.90909091,1.90909091 L19.5681818,1.90909091 L19.5681818,9.06818182 C19.5681818,9.59536272 19.9955464,10.0227273 20.5227273,10.0227273 L27.6818182,10.0227273 L27.6818182,40.0909091 L1.90909091,40.0909091 Z" id="Shape"></path>
                    </g>
                </g>
            </g>
        </g>
    </g>
</svg>