<?xml version="1.0" encoding="UTF-8"?>
<svg width="85px" height="44px" viewBox="0 0 85 44" version="1.1" xmlns="http://www.w3.org/2000/svg" xmlns:xlink="http://www.w3.org/1999/xlink">
    <title>D2B4AF27-D9B3-4A12-83C0-18871D837D27</title>
    <g id="V2.0" stroke="none" stroke-width="1" fill="none" fill-rule="evenodd">
        <g id="Projects-Empty-State" transform="translate(-681.000000, -244.000000)" fill="#000000" fill-rule="nonzero">
            <path d="M743.964222,244 C756.132444,244 766,253.848706 766,266 C766,278.151294 756.132444,288 743.964222,288 L743.964222,288 L703.037667,288 C690.8685,288 681,278.151294 681,266 C681,253.848706 690.8685,244 703.037667,244 L703.037667,244 Z M743.964222,246.094205 L703.037667,246.094205 C692.025444,246.094205 683.0995,255.0066 683.0995,266 C683.0995,276.994343 692.025444,285.905795 703.037667,285.905795 L703.037667,285.905795 L709.617666,285.905887 C709.465066,285.850703 709.345894,285.781311 709.266294,285.72661 C707.371164,284.431058 707.677075,280.97281 708.154409,277.542747 C708.215023,277.109644 708.266166,276.747002 708.287002,276.492401 C708.325833,276.032993 708.16388,275.826306 707.640138,275.250401 C707.239519,274.806963 706.743243,274.256424 706.352094,273.425919 C705.79331,272.229953 706.096379,270.966344 706.407025,270.080409 C705.979887,269.848356 705.508235,269.513899 704.958922,269.12777 C704.168101,268.568776 703.269311,267.934623 702.456706,267.579497 C700.643026,266.783752 699.56713,264.661453 698.853023,263.256922 C698.675917,262.909312 698.495022,262.550428 698.395578,262.414203 C698.145546,262.070351 697.768603,261.391103 697.174777,260.311633 C696.722067,259.491462 696.012695,258.202487 695.637647,257.655706 C694.913122,257.737441 693.178998,258.134844 691.75836,258.524731 L691.75836,258.524731 L691.380471,258.629953 L691.023417,258.459906 C690.532824,258.226914 690.190924,257.805084 690.058331,257.274275 C689.673812,255.718486 691.28955,253.357557 692.00271,252.415253 L692.00271,252.415253 L692.319038,252 L707.512281,252 L707.883541,252.564631 C708.244383,253.199724 707.891118,253.77281 707.442196,254.497154 C707.320968,254.692567 707.105032,255.041116 706.94592,255.352086 C707.367376,255.251561 707.921424,255.060846 708.404441,254.841945 L708.404441,254.841945 L708.867569,254.630561 L709.325014,254.861674 C710.447318,255.433821 713.047084,256.958607 712.943851,258.74457 C712.890814,259.656811 712.163447,260.414037 711.320536,261.291517 C710.375339,262.274219 709.303231,263.391268 709.228411,264.632329 C709.183897,265.361371 708.762442,265.686433 708.518092,265.815142 C707.766101,266.201271 707.016952,265.747499 706.354935,265.345399 C706.124792,265.205416 705.74122,264.972423 705.597262,264.94142 C705.271462,264.903841 705.179594,265.002487 705.141711,265.043824 C704.90115,265.294667 704.817805,265.92976 704.829171,266.505665 C705.298928,266.8063 705.753532,267.125725 706.177829,267.425421 C706.624856,267.741089 707.213947,268.158221 707.50944,268.301962 C707.544482,268.294446 707.575736,268.289749 707.608884,268.28693 C708.621325,268.062393 712.475988,267.342747 714.939373,268.805526 C715.980226,269.422769 716.655503,270.331252 716.943418,271.505609 C717.508832,273.812987 713.709101,283.942526 711.236245,285.631721 C711.048621,285.760438 710.869114,285.848899 710.699695,285.906794 L743.964222,285.905795 C754.973611,285.905795 763.9005,276.994343 763.9005,266 C763.9005,255.0066 754.973611,246.094205 743.964222,246.094205 L743.964222,246.094205 Z M713.860635,270.599005 C712.454205,269.760984 710.009761,269.964852 708.602383,270.216634 C708.591965,270.241061 708.583441,270.267367 708.574918,270.288975 C708.340039,270.884609 707.946996,271.882343 708.259536,272.54562 C708.517145,273.09428 708.850521,273.464438 709.204733,273.855264 C709.781512,274.493175 710.501302,275.285162 710.382915,276.668085 C710.358291,276.949931 710.305254,277.351091 710.238957,277.827411 C710.064693,279.070351 709.572205,282.638519 710.23801,283.757447 C711.675695,282.332246 715.342834,273.913512 714.895807,271.998839 C714.745219,271.381597 714.404266,270.924067 713.860635,270.599005 Z M750.160782,272 C750.370931,272 750.768186,272.063352 751.088018,272.492417 C751.874233,273.536763 752.28347,278.240161 751.776532,280.352851 C751.434579,281.786907 750.609652,282 750.147878,282 C749.282396,282 748.591117,281.234978 747.980948,280.560184 C747.806746,280.366289 747.541294,280.073527 747.438063,280.001536 C747.421473,280.001536 747.194733,279.938184 746.562443,279.938184 C745.464691,279.938184 744.113471,280.129199 744.098724,280.130159 L744.098724,280.130159 L743.189922,280.258783 L742,275.296218 L747.292434,272.286043 L747.829788,272.967556 C748.252851,273.500288 748.462078,273.557881 748.464843,273.557881 C748.50079,273.507967 748.733981,273.155692 748.845508,272.985794 C749.105429,272.589365 749.374567,272.177577 749.877818,272.039355 L749.877818,272.039355 Z M747.615392,251 C749.6261,251 754.084918,252.467575 754.588071,252.636063 L754.588071,252.636063 L754.877766,252.73371 L755.073119,252.970169 C755.880261,253.96004 756.472991,255.472608 755.478119,256.484498 L755.478119,256.484498 L755.410315,256.552218 C755.062324,256.886957 754.289096,257.368543 749.621336,257.415972 C749.6909,257.525107 749.760465,257.632327 749.832889,257.735717 L749.832889,257.735717 L750.446584,258.617411 L745.655189,261.890495 L746.158343,262.903341 L746.019213,263.319776 C743.765505,270.141653 742.53335,270.257489 742.003514,270.307269 L742.003514,270.307269 L741.861526,270.313013 C740.626513,270.313013 740.096677,269.019671 739.630688,267.877586 C739.5211,267.617195 739.367676,267.236181 739.228546,266.970045 C738.854993,267.262028 738.310863,267.827806 737.984003,268.168612 C737.086332,269.101044 736.545061,269.665864 735.824636,269.665864 L735.824636,269.665864 L735.602601,269.643845 C734.809752,269.49929 734.298022,268.75928 733.542339,266.501915 L733.542339,266.501915 L733.267892,266.549781 C732.118643,266.754648 730.906501,267.150022 730.336641,267.482212 C730.568206,267.552097 730.848371,267.613365 731.019901,267.648786 C731.450631,267.740689 731.791784,267.81536 732.081479,267.989593 C732.093815,267.997081 732.106017,268.004488 732.118079,268.011839 L732.188718,268.055464 C732.992015,268.561175 733.045478,269.034123 730.146053,277.993608 C729.836346,278.952844 729.593346,279.697641 729.502817,280.010685 C729.118781,281.384442 727.611226,282 726.291401,282 C725.322258,282 724.604693,281.672596 724.274975,281.082886 C724.262723,281.061004 724.248621,281.035831 724.232725,281.001153 L724.216234,280.963076 C724.05962,280.580773 723.753851,279.225666 723.342044,272.110864 C722.341455,272.079272 720.776723,272.018961 719.637957,271.943333 L719.637957,271.943333 L719.283463,271.922272 L719.015686,271.688685 C717.092648,270.02103 718.399132,265.00562 718.902286,263.332222 C718.971851,262.780804 719.332063,261.625317 721.146465,261.625317 C722.032701,261.625317 723.138115,261.899111 724.203504,262.166203 C725.124046,262.393089 726.076036,262.631462 726.671625,262.631462 C726.738331,262.631462 726.790743,262.62859 726.827907,262.624761 C727.096637,262.081002 727.374896,261.626274 727.603602,261.253876 C727.700803,261.090174 727.81992,260.896795 727.912356,260.728306 C727.859944,260.727349 727.801814,260.724477 727.73892,260.724477 C726.196107,260.724477 723.658421,261.198351 723.633645,261.203138 L723.633645,261.203138 L723.114291,261.301742 L722.726443,260.943703 C722.337643,260.58758 721.071183,259.330616 721.13503,258.088969 L721.13503,258.088969 L721.1417,257.973133 C721.188394,257.000494 721.32943,254.046199 723.731798,253.463189 C724.086292,253.378945 724.395998,253.271725 724.692363,253.171206 C725.285094,252.969211 725.894977,252.759558 726.624931,252.759558 C727.432073,252.759558 728.230638,253.013248 729.142604,253.555092 C729.358922,253.683373 729.64004,253.745599 729.998347,253.745599 C730.921339,253.745599 732.139783,253.325003 733.369229,252.855173 L733.983551,252.617874 C735.056565,252.202396 736.161978,251.772559 737.172097,251.557161 C738.925511,251.183806 741.475584,251.176147 743.726434,251.170403 C745.077706,251.167531 746.475673,251.162745 746.990262,251.056482 C747.175133,251.019146 747.378109,251 747.615392,251 Z M747.614439,253.129084 C747.483886,253.129084 747.426709,253.139615 747.41718,253.140572 C746.691038,253.291829 745.383601,253.296615 743.731199,253.299487 C741.68809,253.305231 739.147546,253.311933 737.614262,253.638379 C736.766143,253.818356 735.785565,254.19937 734.746858,254.60336 C733.138292,255.228491 731.471595,255.875641 729.998347,255.875641 C729.260769,255.875641 728.60991,255.712896 728.065779,255.387407 C727.313908,254.942252 726.882225,254.889599 726.624931,254.889599 C726.24566,254.889599 725.861624,255.020752 725.371811,255.188284 C725.022082,255.307949 724.648528,255.432401 724.229234,255.535791 C723.367774,255.74353 723.288679,257.43799 723.259138,258.077481 L723.259138,258.077481 L723.250562,258.203848 C723.275338,258.340745 723.512621,258.686338 723.803268,259.016614 C724.696175,258.867272 726.463883,258.601136 727.739873,258.601136 C728.610862,258.601136 729.556181,258.702613 729.964994,259.456982 C730.479984,260.402615 730.073413,261.255514 729.582121,262.078767 L729.406569,262.368198 C729.172146,262.756871 728.903416,263.194367 728.660415,263.714193 C728.431709,264.191897 727.904732,264.763418 726.671625,264.763418 C725.818741,264.763418 724.787658,264.505898 723.695586,264.234019 C722.75122,263.998518 721.775407,263.755358 721.146465,263.755358 C721.081665,263.755358 721.026394,263.759187 720.987324,263.763016 L720.987324,263.763016 L720.957782,263.857791 C720.20877,266.298962 719.912405,268.983293 720.253558,269.855414 C721.979337,269.95306 724.346445,270.019116 724.375034,270.019116 L724.375034,270.019116 L725.347035,270.047835 L725.399447,271.024304 C725.602423,274.629578 725.9026,278.659904 726.108436,279.866129 C726.159895,279.871873 726.220883,279.87666 726.290448,279.87666 C726.921296,279.87666 727.415873,279.611482 727.464473,279.434377 C727.556908,279.11176 727.805626,278.336329 728.13058,277.337842 C728.743321,275.443302 730.063147,271.36511 730.427171,269.701285 C729.662911,269.535668 728.691863,269.28485 728.21158,268.512291 C727.956191,268.103514 727.886626,267.626768 728.008603,267.13279 C728.385015,265.608733 730.838842,264.864894 732.514114,264.531746 C732.994397,263.996603 733.478492,263.727596 733.955916,263.727596 C734.517199,263.727596 734.997482,264.09425 735.176635,264.660984 L735.176635,264.660984 L735.236671,264.854364 C735.593071,266.009851 735.853224,266.706782 736.035236,267.129918 C736.182942,266.981533 736.333507,266.824532 736.45739,266.693379 C737.453215,265.658514 738.389957,264.683003 739.397217,264.683003 C740.612219,264.697363 741.130619,265.959113 741.585173,267.069607 C741.668079,267.271602 741.77862,267.540609 741.88535,267.778982 C742.440915,266.834105 743.251869,264.868723 743.86747,263.065129 L743.86747,263.065129 L742.930727,261.178247 L747.51438,258.049719 C746.773944,256.783182 746.886391,256.299734 747.08365,255.921592 C747.285674,255.531962 747.690674,255.28976 748.13951,255.28976 L748.13951,255.28976 L748.859935,255.292632 C751.768315,255.292632 753.242517,255.123186 753.82667,254.985331 C753.775211,254.858965 753.694211,254.699092 753.597964,254.550707 C752.11995,254.073961 748.921876,253.129084 747.614439,253.129084 Z M746.843563,274.96986 L744.371549,276.37608 L744.737466,277.908044 C745.26376,277.85813 745.940292,277.805337 746.562443,277.805337 C747.461106,277.805337 748.039015,277.909004 748.439957,278.140334 C748.795736,278.345748 749.108194,278.695143 749.472268,279.098291 C749.575499,279.210597 749.71652,279.367057 749.855697,279.511039 C750.054786,278.296794 749.940494,276.44999 749.756153,275.157036 C749.085151,275.757919 747.898916,275.934536 746.843563,274.96986 L746.843563,274.96986 Z M705.241155,254.086599 L693.385464,254.086599 C692.857934,254.85134 692.408065,255.683725 692.208229,256.241779 C694.287095,255.707212 695.332684,255.558773 695.901886,255.558773 C696.328077,255.558773 696.486241,255.640508 696.612204,255.707212 C697.106586,255.959934 697.490158,256.53302 699.020658,259.310141 C699.44022,260.073943 699.916607,260.93921 700.103184,261.19475 C700.299232,261.462503 700.489597,261.839237 700.733,262.317436 C701.191392,263.2231 701.914023,264.641724 702.803342,265.356673 C702.91131,264.738491 703.144295,264.099641 703.609317,263.611108 C703.994783,263.20619 704.697525,262.74772 705.836876,262.867035 C706.353988,262.922465 706.839846,263.194916 707.313392,263.477701 C707.762313,261.967007 708.913976,260.771042 709.796666,259.852224 C710.189709,259.442608 710.781641,258.824427 710.847937,258.589555 C710.76554,258.308649 709.822237,257.543907 708.789907,256.949212 C707.906271,257.304338 706.500787,257.738381 705.598209,257.368223 C705.192854,257.202874 704.88789,256.894722 704.739197,256.501078 C704.447493,255.726941 704.800758,254.865432 705.241155,254.086599 L705.241155,254.086599 Z M716.48185,247 L722,250.179367 L719.625293,253.730657 L714.538129,256 L709,250.807151 L716.48185,247 Z M716.415252,249.262309 L712.465018,251.274033 L714.981484,253.631301 L718.149663,252.216589 L719.094409,250.807151 L716.415252,249.262309 Z" id="Combined-Shape"></path>
        </g>
    </g>
</svg>