<?xml version="1.0" encoding="UTF-8"?>
<svg width="17px" height="16px" viewBox="0 0 17 16" version="1.1" xmlns="http://www.w3.org/2000/svg" xmlns:xlink="http://www.w3.org/1999/xlink">
    <title>920CF2D0-39C4-4003-B22D-87F3C76233A2</title>
    <g id="V2.0" stroke="none" stroke-width="1" fill="none" fill-rule="evenodd">
        <g id="Projects-Download" transform="translate(-435.000000, -480.000000)" fill="#2A172D">
            <g id="Group-2" transform="translate(412.000000, 243.000000)">
                <g id="Icon/close-Copy-2" transform="translate(23.500000, 237.000000)">
                    <path d="M8,0 C12.407767,0 16,3.59223301 16,8 C16,12.407767 12.407767,16 8,16 C3.59223301,16 0,12.407767 0,8 C0,3.59223301 3.59223301,0 8,0 Z M8,0.776699029 C4.01941748,0.776699029 0.776699029,4.01941748 0.776699029,8 C0.776699029,11.9805825 4.01941748,15.223301 8,15.223301 C11.9805825,15.223301 15.223301,11.9805825 15.223301,8 C15.223301,4.01941748 11.9805825,0.776699029 8,0.776699029 Z M8,3.12621359 C10.6917179,3.12621359 12.8737864,5.30828209 12.8737864,8 C12.8737864,10.6917179 10.6917179,12.8737864 8,12.8737864 C5.30828209,12.8737864 3.12621359,10.6917179 3.12621359,8 C3.12621359,5.30828209 5.30828209,3.12621359 8,3.12621359 Z" id="Combined-Shape"></path>
                </g>
            </g>
        </g>
    </g>
</svg>