<?xml version="1.0" encoding="UTF-8"?>
<svg width="17px" height="16px" viewBox="0 0 17 16" version="1.1" xmlns="http://www.w3.org/2000/svg" xmlns:xlink="http://www.w3.org/1999/xlink">
    <title>83FCBAC0-8653-4D3D-9CEE-C8F043ACEBFC</title>
    <g id="V2.0" stroke="none" stroke-width="1" fill="none" fill-rule="evenodd">
        <g id="Projects-Download" transform="translate(-435.000000, -505.000000)" fill="#2A172D">
            <g id="Group-2" transform="translate(412.000000, 243.000000)">
                <g id="Icon/close-Copy-2" transform="translate(23.500000, 262.000000)">
                    <path d="M8,16 C12.407767,16 16,12.407767 16,8 C16,3.59223301 12.407767,0 8,0 C3.59223301,0 0,3.59223301 0,8 C0,12.407767 3.59223301,16 8,16 Z M8,0.776699029 C11.9805825,0.776699029 15.223301,4.01941748 15.223301,8 C15.223301,11.9805825 11.9805825,15.223301 8,15.223301 C4.01941748,15.223301 0.776699029,11.9805825 0.776699029,8 C0.776699029,4.01941748 4.01941748,0.776699029 8,0.776699029 Z" id="Shape"></path>
                </g>
            </g>
        </g>
    </g>
</svg>