<?xml version="1.0" encoding="UTF-8"?>
<svg width="12px" height="12px" viewBox="0 0 12 12" version="1.1" xmlns="http://www.w3.org/2000/svg" xmlns:xlink="http://www.w3.org/1999/xlink">
    <title>4EF43B9D-8866-4271-B9E9-A20923E8C6EF</title>
    <g id="V2.0" stroke="none" stroke-width="1" fill="none" fill-rule="evenodd">
        <g id="Projects" transform="translate(-1072.000000, -597.000000)" fill="#2A172D">
            <g id="Group-2-Copy-7" transform="translate(1070.000000, 593.000000)">
                <g id="Icon/data-Copy-7" transform="translate(0.000000, 2.000000)">
                    <g id="icon-trash" transform="translate(2.510000, 2.000000)">
                        <path d="M7.24137931,0 C7.41951724,0 7.57758621,0.114 7.63406897,0.283034483 L7.63406897,0.283034483 L8.16041379,1.86206897 L10.5517241,1.86206897 C10.7801379,1.86206897 10.9655172,2.04744828 10.9655172,2.27586207 C10.9655172,2.50427586 10.7801379,2.68965517 10.5517241,2.68965517 L10.5517241,2.68965517 L9.80089655,2.68965517 L9.20586207,11.6137241 C9.19158621,11.8311724 9.01096552,12 8.79310345,12 L8.79310345,12 L2.17241379,12 C1.95455172,12 1.77393103,11.8311724 1.75965517,11.6137241 L1.75965517,11.6137241 L1.16462069,2.68965517 L0.413793103,2.68965517 C0.18537931,2.68965517 0,2.50427586 0,2.27586207 C0,2.04744828 0.18537931,1.86206897 0.413793103,1.86206897 L0.413793103,1.86206897 L2.80510345,1.86206897 L3.33165517,0.283034483 C3.38793103,0.114 3.546,0 3.72413793,0 L3.72413793,0 Z M8.97165517,2.68965517 L1.99406897,2.68965517 L2.55951724,11.1724138 L8.4062069,11.1724138 L8.97165517,2.68965517 Z M5.48275862,4.33344828 C5.71117241,4.33344828 5.89655172,4.51882759 5.89655172,4.74724138 L5.89655172,4.74724138 L5.89655172,9.51724138 C5.89655172,9.74565517 5.71117241,9.93103448 5.48275862,9.93103448 C5.25434483,9.93103448 5.06896552,9.74565517 5.06896552,9.51724138 L5.06896552,9.51724138 L5.06896552,4.74724138 C5.06896552,4.51882759 5.25434483,4.33344828 5.48275862,4.33344828 Z M3.294,4.34193103 C3.52241379,4.32393103 3.72165517,4.49213793 3.74068966,4.71993103 L3.74068966,4.71993103 L4.13648276,9.47606897 C4.15551724,9.70386207 3.98627586,9.90372414 3.75848276,9.92275862 C3.74668966,9.9237931 3.73531034,9.9242069 3.72372414,9.9242069 C3.51062069,9.9242069 3.3297931,9.76075862 3.3117931,9.54475862 L3.3117931,9.54475862 L2.916,4.78862069 C2.89696552,4.56082759 3.0662069,4.36096552 3.294,4.34193103 Z M7.69717241,4.34710345 C7.92434483,4.37027586 8.08986207,4.57324138 8.06668966,4.80062069 L8.06668966,4.80062069 L7.58275862,9.54786207 C7.56124138,9.76096552 7.38144828,9.91965517 7.17165517,9.91965517 C7.1577931,9.91965517 7.14351724,9.91903448 7.12924138,9.91758621 C6.90186207,9.8942069 6.73655172,9.69124138 6.75972414,9.46406897 L6.75972414,9.46406897 L7.24365517,4.71682759 C7.26662069,4.48944828 7.46689655,4.32475862 7.69717241,4.34710345 Z M6.94303448,0.827586207 L4.02227586,0.827586207 L3.67737931,1.86206897 L7.28793103,1.86206897 L6.94303448,0.827586207 Z" id="Combined-Shape"></path>
                    </g>
                </g>
            </g>
        </g>
    </g>
</svg>