<svg xmlns="http://www.w3.org/2000/svg" viewBox="0 0 505 505" xml:space="preserve" transform="scale(-1 1)"><circle style="fill:#2fa8e4" cx="252.5" cy="252.5" r="252.5"/><path style="fill:#fff" d="M374 137c-67-55-176-55-243 0-59 48-66 123-21 178l-16 52 63-12c67 37 158 31 217-18 67-55 67-145 0-200z"/><path style="fill:#4cdbc4" d="M267 184c3-4 7-6 13-6s9 2 12 6 6 7 6 13c0 5-2 9-6 12s-7 6-12 6-10-2-13-6-6-7-6-12c1-5 2-10 6-13zm-54 0c3-4 7-6 12-6 6 0 10 2 13 6s6 7 6 13c0 5-2 9-6 12s-7 6-12 6c-6 0-10-2-13-6s-6-7-6-12 2-10 6-13zM205 255c17 5 33 8 48 8s30-3 47-8c17-6 31-13 43-21v33c-9 7-23 13-40 18-17 6-34 9-50 9-17 0-34-3-51-9-17-5-31-11-40-18v-33c12 8 26 15 43 21z"/></svg>
