<!DOCTYPE svg PUBLIC "-//W3C//DTD SVG 1.1//EN" "http://www.w3.org/Graphics/SVG/1.1/DTD/svg11.dtd">

<!-- Uploaded to: SVG Repo, www.svgrepo.com, Transformed by: SVG Repo Mixer Tools -->
<svg height="800px" width="800px" version="1.1" id="Layer_1" xmlns="http://www.w3.org/2000/svg" xmlns:xlink="http://www.w3.org/1999/xlink" viewBox="0 0 505 505" xml:space="preserve" fill="#000000" transform="matrix(-1, 0, 0, 1, 0, 0)">

<g id="SVGRepo_bgCarrier" stroke-width="0"/>

<g id="SVGRepo_tracerCarrier" stroke-linecap="round" stroke-linejoin="round"/>

<g id="SVGRepo_iconCarrier"> <circle style="fill:#2fa8e4;" cx="252.5" cy="252.5" r="252.5"/> <path style="fill:#FFFFFF;" d="M373.7,136.8c-67-55.3-175.5-55.3-242.5,0c-58.7,48.6-65.9,123.6-21.4,178.6l-15.3,52.1l63-12.6 c66.6,36.7,157.4,30.8,216.2-17.8C440.7,281.8,440.7,192.1,373.7,136.8z"/> <g> <path style="fill:#4CDBC4;" d="M266.7,183.7c3.5-3.5,7.8-5.3,12.9-5.3s9.4,1.8,12.9,5.3s5.2,7.8,5.2,12.9c0,5.1-1.7,9.4-5.2,12.9 s-7.8,5.2-12.9,5.2s-9.4-1.7-12.9-5.2s-5.3-7.8-5.3-12.9C261.5,191.5,263.2,187.2,266.7,183.7z M212.6,183.7 c3.5-3.5,7.8-5.3,12.9-5.3c5.1,0,9.4,1.8,12.9,5.3s5.2,7.8,5.2,12.9c0,5.1-1.7,9.4-5.2,12.9s-7.8,5.2-12.9,5.2 c-5.1,0-9.4-1.7-12.9-5.2s-5.3-7.8-5.3-12.9S209.1,187.2,212.6,183.7z"/> <path style="fill:#4CDBC4;" d="M204.8,254.5c17,5.7,32.9,8.5,47.7,8.5s30.6-2.8,47.6-8.5c16.9-5.7,31.3-12.6,43.1-20.9V267 c-9.5,6.7-22.9,12.9-40.1,18.4c-17.3,5.5-34.2,8.3-50.6,8.3c-16.5,0-33.3-2.8-50.5-8.3c-17.2-5.6-30.6-11.7-40-18.4v-33.4 C173.5,241.8,187.8,248.8,204.8,254.5z"/> </g> </g>

</svg>
