<?xml version="1.0" encoding="UTF-8"?>
<svg width="20px" height="20px" viewBox="0 0 20 20" version="1.1" xmlns="http://www.w3.org/2000/svg" xmlns:xlink="http://www.w3.org/1999/xlink">
    <title>1FA319B7-F6FF-4FB6-9A4A-0572887AC2A6</title>
    <g id="V1" stroke="none" stroke-width="1" fill="none" fill-rule="evenodd">
        <g id="Data-Hover_PF_CMSV1" transform="translate(-16.000000, -68.000000)" fill="#2A172D">
            <g id="Icon/viewable-area" transform="translate(16.000000, 68.000000)">
                <path d="M9.85464832,2.5 C8.22524792,2.5 6.74713814,2.77448243 5.64680144,3.24127872 C5.09663309,3.47468559 4.64208098,3.75443372 4.30595904,4.09156903 C3.96983711,4.42870259 3.75,4.84243903 3.75,5.29069638 L3.75,14.7093036 C3.75,15.1575592 3.96983711,15.5658381 4.30595904,15.9029891 C4.64208098,16.2401227 5.09663309,16.5198725 5.64680144,16.7532794 C6.7471207,17.2200757 8.22524792,17.5 9.85464832,17.5 C11.4840662,17.5 12.9621759,17.2200757 14.0624952,16.7532794 C14.6126636,16.5198725 15.0672157,16.2401227 15.4033376,15.9029891 C15.7394595,15.5658381 15.9592966,15.1575592 15.9592966,14.7093036 L15.9592966,5.29069638 C15.9592966,4.84245821 15.7394595,4.42870259 15.4033376,4.09156903 C15.0672157,3.75443372 14.6126636,3.47468559 14.0624952,3.24127872 C12.9621759,2.77448243 11.4840662,2.5 9.85464832,2.5 Z M9.85464832,3.19767409 C11.4040778,3.19767409 12.8071004,3.46746292 13.7899663,3.88444703 C14.2814079,4.09292775 14.6663845,4.33498577 14.9127855,4.58212112 C15.1591866,4.82925473 15.2616226,5.06463078 15.2616226,5.29069638 C15.2616226,5.51676022 15.1591866,5.74667698 14.9127855,5.99381233 C14.6663845,6.24096338 14.2814079,6.48300396 13.7899663,6.69148642 C12.8071004,7.10846879 11.4040778,7.38371866 9.85464832,7.38371866 C8.30521881,7.38371866 6.90221365,7.10846879 5.91933039,6.69148642 C5.42788875,6.48300396 5.04291219,6.24096338 4.79651114,5.99381233 C4.55011009,5.74667698 4.44767409,5.51676022 4.44767409,5.29069638 C4.44767409,5.06463078 4.55011009,4.82925473 4.79651114,4.58212112 C5.04291219,4.33498577 5.42788875,4.09292775 5.91933039,3.88444703 C6.90221365,3.46746292 8.30521881,3.19767409 9.85464832,3.19767409 Z M4.44767409,6.62063762 C4.76563906,6.89881772 5.17119701,7.13288738 5.64680144,7.33467217 C6.74713814,7.80146672 8.22524792,8.08139275 9.85464832,8.08139275 C11.4840662,8.08139275 12.9621759,7.80146672 14.0624952,7.33467217 C14.5380996,7.13288738 14.9436576,6.89881598 15.2616226,6.62063762 L15.2616226,8.4302298 C15.2616226,8.65629365 15.1591866,8.88624703 14.9127855,9.13334575 C14.6663845,9.38053168 14.2814079,9.62257925 13.7899663,9.83102682 C12.8071004,10.2480441 11.4040778,10.5232591 9.85464832,10.5232591 C8.30521881,10.5232591 6.90221365,10.2480441 5.91933039,9.83102682 C5.42788875,9.62257925 5.04291219,9.38053168 4.79651114,9.13334575 C4.55011009,8.88624703 4.44767409,8.65627621 4.44767409,8.4302298 L4.44767409,6.62063762 Z M4.44767409,9.76017802 C4.76563906,10.0383407 5.17119701,10.2724103 5.64680144,10.4742126 C6.74713814,10.9409914 8.22524792,11.2209332 9.85464832,11.2209332 C11.4840662,11.2209332 12.9621759,10.9409914 14.0624952,10.4742126 C14.5380996,10.2724103 14.9436576,10.0383407 15.2616226,9.76017802 L15.2616226,11.5697702 C15.2616226,11.795834 15.1591866,12.0257874 14.9127855,12.2728862 C14.6663845,12.5200721 14.2814079,12.7621127 13.7899663,12.9705602 C12.8071004,13.3875775 11.4040778,13.6627925 9.85464832,13.6627925 C8.30521881,13.6627925 6.90221365,13.3875775 5.91933039,12.9705602 C5.42788875,12.7621127 5.04291219,12.5200721 4.79651114,12.2728862 C4.55011009,12.0257874 4.44767409,11.7958166 4.44767409,11.5697702 L4.44767409,9.76017802 Z M4.44767409,12.8997114 C4.76563906,13.1778741 5.17119701,13.4119438 5.64680144,13.613746 C6.74713814,14.0805074 8.22524792,14.3604666 9.85464832,14.3604666 C11.4840662,14.3604666 12.9621759,14.0805074 14.0624952,13.613746 C14.5380996,13.4119438 14.9436576,13.1778741 15.2616226,12.8997114 L15.2616226,14.7093036 C15.2616226,14.9353675 15.1591866,15.165286 14.9127855,15.4124196 C14.6663845,15.6595706 14.2814079,15.9016112 13.7899663,16.1100937 C12.8071004,16.527076 11.4040778,16.8023259 9.85464832,16.8023259 C8.30521881,16.8023259 6.90219621,16.527076 5.91933039,16.1100937 C5.42788875,15.9016112 5.04291219,15.6595706 4.79651114,15.4124196 C4.55011009,15.165286 4.44767409,14.9353675 4.44767409,14.7093036 L4.44767409,12.8997114 Z" id="Shape"></path>
            </g>
        </g>
    </g>
</svg>