<svg width="20" height="20" xmlns="http://www.w3.org/2000/svg"><path d="M4.567 12.2c1.093 0 1.988.894 1.988 1.987a1.993 1.993 0 01-1.988 1.988 1.993 1.993 0 01-1.987-1.988c0-1.093.894-1.987 1.987-1.987zm12.457 1.65c.146 0 .277.158.277.357 0 .199-.116.358-.262.358H8.507c-.146 0-.263-.16-.263-.358 0-.199.117-.358.263-.358zM6.018 7.647c.179 0 .338.16.358.358v3.02a.356.356 0 01-.358.359H2.997a.356.356 0 01-.358-.358V8.006c0-.199.16-.358.358-.358zm11.006 1.51c.146 0 .277.16.277.358 0 .2-.116.358-.262.358H8.507c-.146 0-.263-.159-.263-.358 0-.198.117-.357.263-.357zM4.468 3.117c.119 0 .238.08.298.18l1.55 2.682a.38.38 0 010 .358.328.328 0 01-.298.18h-3.1c-.12 0-.24-.04-.299-.16a.38.38 0 010-.358l1.55-2.703a.328.328 0 01.299-.179zm12.57 1.332c.147 0 .263.16.263.358 0 .199-.116.358-.262.358H8.507c-.146 0-.263-.16-.263-.358 0-.199.117-.358.263-.358z" fill="#2A172D" fill-rule="evenodd"/></svg>
