<svg width="20" height="20" xmlns="http://www.w3.org/2000/svg"><defs><filter id="a"><feColorMatrix in="SourceGraphic" values="0 0 0 0 0.164706 0 0 0 0 0.090196 0 0 0 0 0.176471 0 0 0 1.000000 0"/></filter></defs><g filter="url(#a)" fill="none" fill-rule="evenodd"><g fill="#000" fill-rule="nonzero"><path d="M17.453 9c.047-.094.047-.14.047-.234s0-.141-.047-.235c-.047-.047-.094-.14-.14-.187l-2.11-2.016a.594.594 0 00-.844 0 .594.594 0 000 .844l1.032 1.031h-4.172a.62.62 0 00-.61.61c0 .328.282.609.61.609h4.172l-1.032 1.031a.594.594 0 000 .844c.094.14.282.187.422.187s.281-.046.422-.187l2.11-2.016c.046-.14.093-.187.14-.281z"/><path d="M11.36 11.531a.62.62 0 00-.61.61v2.015H9.437V4.781a.61.61 0 00-.374-.562l-2.438-.797h4.125v2.015c0 .329.281.61.61.61a.62.62 0 00.609-.61V2.86a.62.62 0 00-.61-.609H3.063c-.047 0-.141 0-.188.047-.047 0-.047.047-.094.047l-.047.047-.046.046c-.047.047-.094.094-.094.141v.047c-.094.094-.094.14-.094.234v11.86c0 .094 0 .14.047.187 0 0 0 .047.047.047 0 .047.047.094.094.14l.046.048c.047.046.094.046.094.093 0 0 .047 0 .047.047l5.766 1.969c.046 0 .14.047.187.047.14 0 .235-.047.328-.094a.577.577 0 00.235-.469v-1.359h1.921a.62.62 0 00.61-.61v-2.671c.047-.328-.235-.563-.563-.563zm-7.688 2.766V3.656l4.594 1.547v10.64l-4.594-1.546z"/></g></g></svg>
