<svg xmlns="http://www.w3.org/2000/svg" viewBox="0 0 7866.1 245.2"><style>.st1{display:inline}.st2{fill:#851fff}.st4{fill:#a662ba}.st5{fill:#a662b9}.st6{fill:#a762b8}.st7{fill:#a762b6}.st8{fill:#a862b5}.st9{fill:#a862b4}.st10{fill:#a962b3}.st11{fill:#a962b2}.st12{fill:#aa62b1}.st13{fill:#aa62b0}.st14{fill:#ab62af}.st15{fill:#ab63ae}.st16{fill:#ac63ad}.st17{fill:#ac63ac}.st18{fill:#ac63ab}.st19{fill:#ad63aa}.st20{fill:#ad63a9}.st21{fill:#ae63a8}.st22{fill:#ae63a7}.st23{fill:#af63a6}.st24{fill:#af63a5}.st25{fill:#b063a4}.st26{fill:#b063a3}.st27{fill:#b163a2}.st28{fill:#b163a1}.st29{fill:#b263a0}.st30{fill:#b2639f}.st31{fill:#b3639e}.st32{fill:#b3649d}.st33{fill:#b4649c}.st34{fill:#b4649b}.st35{fill:#b5649a}.st36{fill:#b56499}.st37{fill:#b56498}.st38{fill:#b66497}.st39{fill:#b66496}.st40{fill:#b76495}.st41{fill:#b76494}.st42{fill:#b86493}.st43{fill:#b86492}.st44{fill:#b96491}.st45{fill:#b96490}.st46{fill:#ba648f}.st47{fill:#ba648e}.st48{fill:#bb648d}.st49{fill:#bb658c}.st50{fill:#bc658b}.st51{fill:#bc658a}.st52{fill:#bd6589}.st53{fill:#bd6588}.st54{fill:#be6587}.st55{fill:#be6586}.st56{fill:#bf6585}.st57{fill:#bf6584}.st58{fill:#c06583}.st59{fill:#c06682}.st60{fill:#c16681}.st61{fill:#c26780}.st62{fill:#c3677f}.st63{fill:#c3677e}.st64{fill:#c4687d}.st65{fill:#c5687c}.st66{fill:#c5687b}.st67{fill:#c6697a}.st68{fill:#c76979}.st69{fill:#c76a78}.st70{fill:#c86a77}.st71{fill:#c96a76}.st72{fill:#ca6b75}.st73{fill:#ca6b74}.st74{fill:#cb6b73}.st75{fill:#cc6c72}.st76{fill:#cc6c71}.st77{fill:#cd6d70}.st78{fill:#ce6d6f}.st79{fill:#ce6d6e}.st80{fill:#cf6e6d}.st81{fill:#d06e6c}.st82{fill:#d16f6b}.st83{fill:#d16f6a}.st84{fill:#d26f69}.st85{fill:#d37068}.st86{fill:#d37067}.st87{fill:#d47066}.st88{fill:#d57165}.st89{fill:#d67164}.st90{fill:#d67263}.st91{fill:#d77262}.st92{fill:#d87261}.st93{fill:#d8735f}.st94{fill:#d9735e}.st95{fill:#da735d}.st96{fill:#da745c}.st97{fill:#db745b}.st103{fill:#df7655}.st104{fill:#e07754}.st105{fill:#e17753}.st106{fill:#e27852}.st107{fill:#e27851}.st108{fill:#e37850}.st109{fill:#e4794f}.st110{fill:#e4794e}.st111{fill:#e57a4d}.st112{fill:#e67a4c}.st113{fill:#e67a4b}.st114{fill:#e77b4a}.st115{fill:#e87b49}.st116{fill:#e97b48}.st117{fill:#e97c47}.st128{fill:#f1803c}.st129{fill:#9360e1}.st130{fill:#9460e0}.st131{fill:#9460df}.st132{fill:#9560de}.st133{fill:#9560dd}.st134{fill:#9660dc}.st135{fill:#9660db}.st136{fill:#9760da}.st137{fill:#9760d9}.st138{fill:#9860d8}.st139{fill:#9860d7}.st140{fill:#9960d6}.st141{fill:#9960d5}.st142{fill:#9960d4}.st143{fill:#9a60d3}.st144{fill:#9a60d2}.st145{fill:#9b60d1}.st146{fill:#9b61d0}.st147{fill:#9c61cf}.st148{fill:#9c61ce}.st149{fill:#9d61cd}.st150{fill:#9d61cc}.st151{fill:#9e61cb}.st152{fill:#9e61ca}.st153{fill:#9f61c9}.st154{fill:#9f61c8}.st155{fill:#a061c7}.st156{fill:#a061c6}.st157{fill:#a161c5}.st158{fill:#a161c4}.st159{fill:#a261c3}.st160{fill:#a261c2}.st161{fill:#a261c1}.st162{fill:#a361c0}.st163{fill:#a362bf}.st164{fill:#a462be}.st165{fill:#a462bd}.st166{fill:#a562bc}.st167{fill:#a562bb}.st168{fill:#8a57f4}.st169{fill:#8b58f4}.st170{fill:#8b59f4}.st171{fill:#8b5af4}.st172{fill:#8b5bf4}.st173{fill:#8b5cf3}.st174{fill:#8b5df3}.st175{fill:#8b5ef3}.st176{fill:#8c5ef2}.st177{fill:#8c5ef1}.st178{fill:#8d5ef0}.st179{fill:#8d5fef}.st180{fill:#8e5fed}.st181{fill:#8e5fec}.st182{fill:#8f5feb}.st183{fill:#8f5fea}.st184{fill:#8f5fe9}.st185{fill:#905fe8}.st186{fill:#905fe7}.st187{fill:#915fe6}.st188{fill:#915fe5}.st189{fill:#925fe4}.st190{fill:#925fe3}.st191{fill:#935fe2}.st192{fill:#8946f8}.st193{fill:#8947f7}.st194{fill:#8948f7}.st195{fill:#8949f7}.st196{fill:#894af7}.st197{fill:#8a4bf7}.st198{fill:#8a4cf6}.st199{fill:#8a4df6}.st200{fill:#8a4ef6}.st201{fill:#8a4ff6}.st202{fill:#8a50f6}.st203{fill:#8a52f5}.st204{fill:#8a53f5}.st205{fill:#8a54f5}.st206{fill:#8a55f5}.st207{fill:#8a56f5}.st208{fill:#883bfa}.st209{fill:#883cfa}.st210{fill:#883df9}.st211{fill:#883ef9}.st212{fill:#883ff9}.st213{fill:#8940f9}.st214{fill:#8941f9}.st215{fill:#8942f8}.st216{fill:#8943f8}.st217{fill:#8944f8}.st218{fill:#8945f8}.st219{fill:#8629fd}.st220{fill:#862afd}.st221{fill:#862bfd}.st222{fill:#862cfc}.st223{fill:#862dfc}.st224{fill:#872efc}.st225{fill:#872ffc}.st226{fill:#8730fc}.st227{fill:#8731fb}.st228{fill:#8732fb}.st229{fill:#8733fb}.st230{fill:#8734fb}.st231{fill:#8735fb}.st232{fill:#8837fb}.st233{fill:#8838fa}.st234{fill:#8839fa}.st235{fill:#883afa}.st236{fill:#8520ff}.st237{fill:#8521ff}.st238{fill:#8522fe}.st239{fill:#8523fe}.st240{fill:#8628fd}.st250{display:inline;fill:#8a4ef6}.st251,.st252,.st253{display:inline;fill:#8a4ff6}.st252,.st253{fill:#8a50f6}.st253{fill:#8a52f5}.st254,.st255,.st256{display:inline;fill:#8a53f5}.st255,.st256{fill:#8a54f5}.st256{fill:#8a55f5}.st257,.st258,.st259{display:inline;fill:#8a56f5}.st258,.st259{fill:#8a57f4}.st259{fill:#8b58f4}.st260,.st261,.st262{display:inline;fill:#8b59f4}.st261,.st262{fill:#8b5af4}.st262{fill:#8b5bf4}.st263,.st264,.st265{display:inline;fill:#8b5cf3}.st264,.st265{fill:#8b5df3}.st265{fill:#8b5ef3}.st266,.st267,.st268{display:inline;fill:#8c5ef2}.st267,.st268{fill:#8c5ef1}.st268{fill:#8d5ef0}.st269,.st270,.st271{display:inline;fill:#8d5fef}.st270,.st271{fill:#8e5fed}.st271{fill:#8e5fec}.st272,.st273,.st274{display:inline;fill:#8f5feb}.st273,.st274{fill:#8f5fea}.st274{fill:#8f5fe9}.st275,.st276,.st277{display:inline;fill:#905fe8}.st276,.st277{fill:#905fe7}.st277{fill:#915fe6}.st278,.st279,.st280{display:inline;fill:#915fe5}.st279,.st280{fill:#925fe4}.st280{fill:#925fe3}.st281,.st282,.st283{display:inline;fill:#935fe2}.st282,.st283{fill:#9360e1}.st283{fill:#9460e0}.st284,.st285,.st286{display:inline;fill:#9460df}.st285,.st286{fill:#9560de}.st286{fill:#9560dd}.st287,.st288,.st289{display:inline;fill:#9660dc}.st288,.st289{fill:#9660db}.st289{fill:#9760da}.st290,.st291,.st292{display:inline;fill:#9760d9}.st291,.st292{fill:#9860d8}.st292{fill:#9860d7}.st293,.st294,.st295{display:inline;fill:#9960d6}.st294,.st295{fill:#9960d5}.st295{fill:#9960d4}.st296,.st297,.st298{display:inline;fill:#9a60d3}.st297,.st298{fill:#9a60d2}.st298{fill:#9b60d1}.st299,.st300,.st301{display:inline;fill:#9b61d0}.st300,.st301{fill:#9c61cf}.st301{fill:#9c61ce}.st302,.st303,.st304{display:inline;fill:#9d61cd}.st303,.st304{fill:#9d61cc}.st304{fill:#9e61cb}.st305,.st306,.st307{display:inline;fill:#9e61ca}.st306,.st307{fill:#9f61c9}.st307{fill:#9f61c8}.st308,.st309,.st310{display:inline;fill:#a061c7}.st309,.st310{fill:#a061c6}.st310{fill:#a161c5}.st311,.st312,.st313{display:inline;fill:#a161c4}.st312,.st313{fill:#a261c3}.st313{fill:#a261c2}.st314,.st315,.st316{display:inline;fill:#a261c1}.st315,.st316{fill:#a361c0}.st316{fill:#a362bf}.st317,.st318,.st319{display:inline;fill:#a462be}.st318,.st319{fill:#a462bd}.st319{fill:#a562bc}.st320,.st321,.st322{display:inline;fill:#a562bb}.st321,.st322{fill:#a662ba}.st322{fill:#a662b9}</style><g id="Layer_1"><path class="st2" d="M7057.49 113.54c-4.85-5.5-11.42-8.52-18.49-8.52-7.23 0-14.11 3.71-18.22 9.76V80.1H7009v83.75h11.78v-9.05c4.07 6.18 10.94 9.97 18.22 9.97 7.07 0 13.64-3.03 18.49-8.52 4.88-5.55 7.58-13.13 7.58-21.36 0-8.22-2.7-15.81-7.58-21.35zm-20.46 40.39c-8.81 0-16.25-8.72-16.25-19.03 0-10.32 7.44-19.03 16.25-19.03 9.27 0 16.26 8.18 16.26 19.03 0 10.84-6.99 19.03-16.26 19.03zM6926.53 113.54c-4.85-5.5-11.42-8.52-18.49-8.52-7.23 0-14.11 3.71-18.22 9.76V80.1h-11.78v83.75h11.78v-9.05c4.07 6.18 10.94 9.97 18.22 9.97 7.07 0 13.64-3.03 18.49-8.52 4.88-5.55 7.58-13.13 7.58-21.36 0-8.22-2.7-15.81-7.58-21.35zm-20.46 40.39c-8.81 0-16.25-8.72-16.25-19.03 0-10.32 7.44-19.03 16.25-19.03 9.27 0 16.26 8.18 16.26 19.03 0 10.84-6.99 19.03-16.26 19.03zM6801.16 105.36c-8.76 0-16.31 4.37-20.06 11.5v-10.92h-11.77V163.85h11.77v-30c0-9.55 7.23-16.49 17.18-16.49 2.57 0 5.4.55 8.18 1.59l.47.18V106l-.29-.05c-2.17-.41-3.81-.59-5.48-.59zM7076.19 80.45v83.41h11.78V80.1h-11.78zM7146.23 111.85c-4.82-4.4-11.41-6.83-18.57-6.83-16.98 0-28.84 12.29-28.84 29.88 0 17.87 11.68 29.88 29.07 29.88 13.33 0 23.03-7.69 25.95-20.58l.1-.42h-12.12l-.08.23c-2.29 6.77-6.63 9.92-13.62 9.92-9.57 0-16.61-6.2-17.6-15.45h43.97l.05-.3c.22-1.34.34-2.4.34-4.09-.05-9.4-3.04-17.08-8.65-22.24zm-35.09 16.7c2.17-8.72 7.92-13.14 17.09-13.14 7.94 0 13.76 5.26 14.61 13.14h-31.7zM6996.11 163.31c-1.78-2.68-1.78-12.66-1.78-16.41v-15.23c0-17.68-8.27-26.65-24.58-26.65-13.64 0-23.59 7.53-25.94 19.66l-.08.42h11.54l.06-.27c.23-.96 2.53-9.42 13.5-9.42 12.04 0 13.66 7.62 13.72 13.57-3.82-.31-7.37-.46-10.57-.46-9.49 0-16.51 1.29-21.46 3.97-5.69 3.06-8.57 8.03-8.57 14.75 0 10 8.39 17.54 19.5 17.54 9.02 0 16.35-3.98 21.84-11.84.15 4.02.55 7.29 1.82 10.69l.09.23h11.27l-.36-.55zm-30.42-8.92c-.67.06-1.35.1-2.03.1-6.03 0-9.93-3.03-9.93-7.71 0-8.65 13.4-9.58 19.16-9.58 3.04 0 6.27.22 9.61.65-1.13 7.36-7.79 15.69-16.81 16.54zM6838.92 105.02c-8.72 0-16.1 3.03-21.35 8.78-4.91 5.36-7.61 12.86-7.61 21.1 0 17.31 12.18 29.88 28.96 29.88 16.51 0 28.96-12.85 28.96-29.88 0-17.04-12.45-29.88-28.96-29.88zm0 48.91c-9.8 0-17.18-8.19-17.18-19.03 0-10.85 7.38-19.03 17.18-19.03s17.18 8.18 17.18 19.03c0 10.84-7.38 19.03-17.18 19.03zM6751.49 89.28c-5.47-4.87-13.69-7.33-24.42-7.33h-29.65v40.99H-3.16v10.86h6700.57v30.06h12.7v-30.08h18.79c18.3 0 30.11-10.47 30.11-26.1.01-7.67-2.59-14.03-7.52-18.4zm-22.69 33.65h-18.68V92.81h18.68c10.82 0 17.53 5.69 17.53 14.87 0 8.76-7.21 15.25-17.53 15.25z"/><linearGradient id="SVGID_1_" gradientUnits="userSpaceOnUse" x1="7524.855" y1="24.305" x2="7459.442" y2="218.678"><stop offset=".017" stop-color="#f1803c"/><stop offset=".102" stop-color="#d06e6b"/><stop offset=".157" stop-color="#bf6584"/><stop offset=".456" stop-color="#8b5ef3"/><stop offset=".634" stop-color="#8737fa"/><stop offset=".735" stop-color="#851fff"/></linearGradient><path d="M7666.68 105.95l.29.05V119.14l-.47-.18c-2.78-1.04-5.61-1.59-8.18-1.59-9.96 0-17.18 6.93-17.18 16.49v30h-11.77V105.95h11.77v10.92c3.76-7.13 11.31-11.5 20.06-11.5 1.66-.01 3.3.17 5.48.58zm-176.6-.01h-.35V135.82c0 7.52-5.12 18.1-16.49 18.1-8.07 0-12.34-5.3-12.34-15.34v-32.65h-11.77v33.57c0 16.53 7.78 25.27 22.5 25.27 10.38 0 16.19-6.97 18.1-9.76v8.83h11.77V105.93h-11.42zm113.25 0h-.35V135.82c0 7.52-5.12 18.1-16.49 18.1-8.07 0-12.34-5.3-12.34-15.34v-32.65h-11.77v33.57c0 16.53 7.78 25.27 22.5 25.27 10.38 0 16.19-6.97 18.1-9.76v8.83h11.77V105.93h-11.42zm158.36 23.3c-11.57-1.46-13.77-3.68-13.77-7.26 0-2.64 3.07-6.57 11.53-6.57 10.64 0 11.89 7.8 11.99 8.69l.04.31H7783.01l-.03-.38c-.9-11.37-10.22-19.01-23.19-19.01-14.8 0-23.65 8.98-23.65 17.65 0 6.56 3.42 14.79 19.69 16.73 13.52 1.61 17.22 3.32 17.22 7.96 0 2.61-2.77 7.03-13.14 7.03-10.37 0-13.96-7.08-14.07-10.5l-.01-.34H7734.28l.02.37c.6 12.67 10.48 20.87 25.15 20.87 15.18 0 25.38-7.7 25.38-19.15 0-9.37-7.13-14.43-23.14-16.4zm-228.23-23.3V89.33h-11.77V105.94h-9.23v10.85h9.23v27.33c0 8.05 2.03 13.59 6.22 16.91 3.21 2.55 7.57 3.74 13.74 3.74 2.5 0 5.62-.36 8.15-.93l.27-.06v-10.86l-.42.08c-1.44.29-3.65.63-5.98.63-6.78 0-10.21-2.74-10.21-8.13v-28.72H7550.07v-10.85H7533.46zm-141.1 11.76h-200.73v10.85h200.73v35.31h12.7v-35.31h32.32V117.7h-32.32V92.81h39.68V81.95h-52.38v35.75zm333.9 16.4c0 1.64-.12 2.7-.35 4.08l-.05.3h-43.97c1 9.25 8.04 15.45 17.6 15.45 7 0 11.34-3.15 13.63-9.92l.08-.23h12.11l-.1.42c-2.9 12.89-12.6 20.58-25.95 20.58-17.38 0-29.06-12.01-29.06-29.88 0-17.59 11.85-29.88 28.83-29.88 7.16 0 13.75 2.43 18.57 6.84 5.61 5.15 8.6 12.84 8.66 22.24zm-12.04-5.55c-.86-7.88-6.67-13.14-14.61-13.14-11.35 0-15.56 7.04-17.09 13.14h31.7z" fill="url(#SVGID_1_)"/></g></svg>
