<svg width="30" height="35" fill="none" xmlns="http://www.w3.org/2000/svg"><path fill-rule="evenodd" clip-rule="evenodd" d="m7.192 22.022 7.386 7.145a1 1 0 0 0 1.391 0l7.259-7.021C27.307 23.396 30 25.55 30 28c0 3.866-6.716 7-15 7-8.284 0-15-3.134-15-7 0-2.532 2.879-4.749 7.192-5.978Z" fill="#8929FF" fill-opacity=".3"/><mask id="a" style="mask-type:alpha" maskUnits="userSpaceOnUse" x="2" y="0" width="26" height="26"><path fill="#D9D9D9" d="M2 0h26v26H2z"/></mask><g mask="url(#a)"><path d="M20.28 18.034C19.131 19.822 17.371 21.81 15 24c-2.372-2.189-4.132-4.178-5.28-5.966C8.575 16.246 8 14.658 8 13.27c0-2.13.675-3.874 2.027-5.233C11.378 6.679 13.037 6 15 6c1.964 0 3.621.679 4.972 2.037C21.324 9.396 22 11.14 22 13.27c0 1.388-.574 2.976-1.72 4.764Z" fill="#fff"/><path d="M15 15c.596 0 1.106-.212 1.53-.637.425-.424.637-.933.637-1.53 0-.595-.212-1.105-.636-1.53a2.09 2.09 0 0 0-1.53-.636c-.597 0-1.107.212-1.53.636a2.087 2.087 0 0 0-.637 1.53c0 .597.212 1.106.636 1.53.424.425.934.637 1.53.637Zm0 7.963c2.203-2.022 3.837-3.86 4.902-5.512 1.066-1.652 1.598-3.119 1.598-4.4 0-1.969-.627-3.58-1.883-4.836C18.363 6.961 16.824 6.334 15 6.334c-1.823 0-3.363.627-4.618 1.881C9.127 9.471 8.5 11.082 8.5 13.05c0 1.282.533 2.75 1.598 4.4 1.065 1.653 2.7 3.49 4.902 5.513Zm0 2.87c-2.907-2.473-5.078-4.77-6.513-6.893-1.436-2.12-2.154-4.084-2.154-5.89 0-2.708.872-4.866 2.615-6.473 1.742-1.607 3.76-2.41 6.052-2.41 2.293 0 4.31.803 6.053 2.41 1.742 1.607 2.614 3.765 2.614 6.473 0 1.806-.718 3.77-2.153 5.89-1.436 2.122-3.607 4.42-6.514 6.894Z" fill="#8929FF"/></g></svg>
