<?xml version="1.0" encoding="UTF-8"?>
<svg width="20px" height="20px" viewBox="0 0 20 20" version="1.1" xmlns="http://www.w3.org/2000/svg" xmlns:xlink="http://www.w3.org/1999/xlink">
    <title>9C377192-D866-4062-AABE-CAA14B3C0B89</title>
    <g id="V1" stroke="none" stroke-width="1" fill="none" fill-rule="evenodd">
        <g id="Data-Hover_PF_CMSV1" transform="translate(-16.000000, -104.000000)" fill="#2A172D">
            <g id="Icon/viewable-area" transform="translate(16.000000, 104.000000)">
                <path d="M6.78653846,10.8721429 C6.00043956,10.8721429 5.36038462,11.5118681 5.36038462,12.2981319 C5.36038462,13.0843956 6.0006044,13.7241209 6.78653846,13.7241209 C7.57296703,13.7241209 8.21252747,13.0843956 8.21252747,12.2981319 C8.21252747,11.5118681 7.57296703,10.8721429 6.78653846,10.8721429 Z M6.78653846,13.1536264 C6.31461538,13.1536264 5.93087912,12.7698901 5.93087912,12.2981319 C5.93087912,11.8263736 6.31461538,11.4424725 6.78653846,11.4424725 C7.2582967,11.4424725 7.64203297,11.8263736 7.64203297,12.2981319 C7.64203297,12.7698901 7.2582967,13.1536264 6.78653846,13.1536264 Z M7.30230769,8.23032967 C7.30230769,7.4439011 6.66225275,6.80417582 5.87631868,6.80417582 C5.08972527,6.80417582 4.45032967,7.4439011 4.45032967,8.23032967 C4.45032967,9.01659341 5.08972527,9.65615385 5.87631868,9.65615385 C6.66225275,9.65615385 7.30230769,9.01659341 7.30230769,8.23032967 Z M5.02049451,8.23032967 C5.02049451,7.75840659 5.4043956,7.37467033 5.87615385,7.37467033 C6.34791209,7.37467033 6.73164835,7.75857143 6.73164835,8.23032967 C6.73164835,8.70192308 6.34791209,9.08582418 5.87615385,9.08582418 C5.4043956,9.08582418 5.02049451,8.70192308 5.02049451,8.23032967 Z M16.5673626,6.1867033 C15.3190659,3.94708791 12.742033,2.5 10.0024725,2.5 C9.49989011,2.5 8.99978022,2.54978022 8.51450549,2.64802198 C4.49747253,3.46181319 1.96626374,7.13417582 2.62642857,11.1906044 C3.1867033,14.635989 6.36142857,17.335 9.85296703,17.3351648 C10.5131319,17.3351648 11.0218132,16.932967 11.1487363,16.3105495 C11.2456593,15.8353297 11.0267582,15.4804396 10.8256593,15.2247802 C10.4996154,14.8103846 10.4478571,14.3836264 10.6679121,13.9206044 C10.8845055,13.4641758 11.2501099,13.2335714 11.7838462,13.2156044 C11.8807692,13.2123077 11.9776923,13.2113187 12.0746154,13.2113187 L12.5837912,13.2144505 L12.8277473,13.2116484 L13.015,13.211978 C13.1023626,13.211978 13.1893956,13.2118132 13.2767582,13.2108242 C14.9457143,13.193022 16.4603846,12.1451648 17.0447253,10.6034615 C17.5784615,9.19758242 17.4174176,7.71159341 16.5673626,6.1867033 Z M16.5116484,10.4012088 C16.0097253,11.7251648 14.7068681,12.625 13.2706593,12.6403297 L13.015,12.6416484 L12.5837912,12.6408242 L12.3976923,12.642967 L12.0746154,12.640989 C11.9715934,12.640989 11.8679121,12.6421429 11.7643956,12.6456044 C11.0185165,12.6708242 10.4613736,13.0268681 10.1528022,13.6758242 C9.83978022,14.3351648 9.91774725,14.9928571 10.3773077,15.5775275 C10.5711538,15.8236264 10.6306593,15.997033 10.5901099,16.1963187 C10.5159341,16.5576374 10.2474176,16.7646703 9.85296703,16.7646703 C6.63324176,16.7646703 3.70642857,14.2758242 3.18950549,11.098956 C2.57945055,7.35142857 4.91747253,3.95862637 8.62758242,3.20714286 C9.07543956,3.11648352 9.5378022,3.07049451 10.0024725,3.07049451 C12.5382967,3.07049451 14.9196703,4.40285714 16.0693956,6.46445055 C16.8441209,7.85483516 16.989011,9.14252747 16.5116484,10.4012088 Z M9.73214286,4.53027473 C8.94604396,4.53027473 8.30615385,5.17 8.30615385,5.95642857 C8.30615385,6.74269231 8.94620879,7.38225275 9.73214286,7.38225275 C10.5187363,7.38225275 11.1582967,6.74269231 11.1582967,5.95642857 C11.1582967,5.17016484 10.5187363,4.53027473 9.73214286,4.53027473 Z M9.73214286,6.81192308 C9.26038462,6.81192308 8.87664835,6.42802198 8.87664835,5.95642857 C8.87664835,5.48450549 9.26038462,5.10076923 9.73214286,5.10076923 C10.2040659,5.10076923 10.5878022,5.48450549 10.5878022,5.95642857 C10.5878022,6.42818681 10.2040659,6.81192308 9.73214286,6.81192308 Z M13.7341758,6.50005495 C12.9475824,6.50005495 12.308022,7.13978022 12.308022,7.92604396 C12.308022,8.71247253 12.9475824,9.35203297 13.7341758,9.35203297 C14.5201099,9.35203297 15.1601649,8.71247253 15.1601649,7.92604396 C15.1603297,7.13978022 14.5201099,6.50005495 13.7341758,6.50005495 Z M13.7341758,8.78153846 C13.2622527,8.78153846 12.8785165,8.39763736 12.8785165,7.92604396 C12.8785165,7.45428571 13.2622527,7.07038462 13.7341758,7.07038462 C14.2059341,7.07038462 14.5896704,7.45428571 14.5896704,7.92604396 C14.5898352,8.3978022 14.2060989,8.78153846 13.7341758,8.78153846 Z" id="Shape"></path>
            </g>
        </g>
    </g>
</svg>