<?xml version="1.0" encoding="UTF-8"?>
<svg width="16px" height="16px" viewBox="0 0 16 16" version="1.1" xmlns="http://www.w3.org/2000/svg" xmlns:xlink="http://www.w3.org/1999/xlink">
    <title>38242A4D-6B04-471C-BC9B-7BA8D23B197A</title>
    <g id="V1" stroke="none" stroke-width="1" fill="none" fill-rule="evenodd">
        <g id="Data-Hover_PF_CMSV1" transform="translate(-1232.000000, -32.000000)" fill="#851FFF">
            <g id="Zoom-Controls" transform="translate(1224.000000, 24.000000)">
                <g id="Icon/plus" transform="translate(8.000000, 8.000000)">
                    <path d="M13.3414065,7.25283215 C13.712657,7.29930989 14,7.61617766 14,8 C14,8.38382234 13.712657,8.70069011 13.3414065,8.74716785 L13.2469636,8.75303644 L8.75230769,8.75230769 L8.75303644,13.2469636 C8.75303644,13.6307859 8.46569347,13.9476537 8.09444297,13.9941314 L8,14 C7.61617766,14 7.29930989,13.712657 7.25283215,13.3414065 L7.24696356,13.2469636 L7.24676923,8.75230769 L2.75303644,8.75303644 C2.3692141,8.75303644 2.05234633,8.46569347 2.00586858,8.09444297 L2,8 C2,7.61617766 2.28734297,7.29930989 2.65859347,7.25283215 L2.75303644,7.24696356 L7.24676923,7.24676923 L7.24696356,2.75303644 C7.24696356,2.3692141 7.53430653,2.05234633 7.90555703,2.00586858 L8,2 C8.38382234,2 8.70069011,2.28734297 8.74716785,2.65859347 L8.75303644,2.75303644 L8.75230769,7.24676923 L13.2469636,7.24696356 L13.3414065,7.25283215 Z" id="Plus"></path>
                </g>
            </g>
        </g>
    </g>
</svg>