<svg xmlns="http://www.w3.org/2000/svg" height="20" viewBox="0 -960 960 960" width="20"><g transform="translate(480 -480) scale(0.84) translate(-480 480)"><path d="M491-200q12-1 20.5-9.5T520-230q0-14-9-22.5t-23-7.5q-41 3-87-22.5T343-375q-2-11-10.5-18t-19.5-7q-14 0-23 10.5t-6 24.5q17 91 80 130t127 35Zm-239.5 26Q160-268 160-408q0-100 79.5-217.5T480-880q161 137 240.5 254.5T800-408q0 140-91.5 234T480-80q-137 0-228.5-94ZM652-230.5Q720-301 720-408q0-73-60.5-165T480-774Q361-665 300.5-573T240-408q0 107 68 177.5T480-160q104 0 172-70.5ZM480-480Z"/></g><rect x="668" y="-846" width="248" height="76"/><rect x="754" y="-932" width="76" height="248"/></svg>
