<svg width="40" height="40" viewBox="0 0 40 40" fill="none" xmlns="http://www.w3.org/2000/svg">
<mask id="mask0_1603_219538" style="mask-type:alpha" maskUnits="userSpaceOnUse" x="0" y="0" width="40" height="40">
<rect width="40" height="40" fill="#D9D9D9"/>
</mask>
<g mask="url(#mask0_1603_219538)">
<path d="M13.833 28.125L20 21.958L26.167 28.125L28.125 26.167L21.958 20L28.125 13.833L26.167 11.875L20 18.042L13.833 11.875L11.875 13.833L18.042 20L11.875 26.167L13.833 28.125ZM20 36.667C17.722 36.667 15.5693 36.2293 13.542 35.354C11.514 34.4793 9.74301 33.285 8.22901 31.771C6.71501 30.257 5.52067 28.486 4.64601 26.458C3.77067 24.4307 3.33301 22.278 3.33301 20C3.33301 17.6947 3.77067 15.528 4.64601 13.5C5.52067 11.472 6.71501 9.70801 8.22901 8.20801C9.74301 6.70801 11.514 5.52067 13.542 4.64601C15.5693 3.77067 17.722 3.33301 20 3.33301C22.3053 3.33301 24.472 3.77067 26.5 4.64601C28.528 5.52067 30.292 6.70801 31.792 8.20801C33.292 9.70801 34.4793 11.472 35.354 13.5C36.2293 15.528 36.667 17.6947 36.667 20C36.667 22.278 36.2293 24.4307 35.354 26.458C34.4793 28.486 33.292 30.257 31.792 31.771C30.292 33.285 28.528 34.4793 26.5 35.354C24.472 36.2293 22.3053 36.667 20 36.667ZM20 33.875C23.8613 33.875 27.139 32.5277 29.833 29.833C32.5277 27.139 33.875 23.8613 33.875 20C33.875 16.1387 32.5277 12.861 29.833 10.167C27.139 7.47234 23.8613 6.12501 20 6.12501C16.1387 6.12501 12.861 7.47234 10.167 10.167C7.47234 12.861 6.12501 16.1387 6.12501 20C6.12501 23.8613 7.47234 27.139 10.167 29.833C12.861 32.5277 16.1387 33.875 20 33.875Z" fill="#FEFFFC"/>
</g>
</svg>
