<svg xmlns="http://www.w3.org/2000/svg" height="24" viewBox="0 -960 960 960" width="24"><path d="M447.692-407.692h224.616v-104.616H447.692v104.616Zm-35.384 35.384v-175.384h295.384v175.384H412.308ZM184.615-200Q157-200 138.5-218.5 120-237 120-264.615v-430.77Q120-723 138.5-741.5 157-760 184.615-760h590.77Q803-760 821.5-741.5 840-723 840-695.385v430.77Q840-237 821.5-218.5 803-200 775.385-200h-590.77Zm0-40h590.77q9.23 0 16.923-7.692Q800-255.385 800-264.615V-640H160v375.385q0 9.23 7.692 16.923Q175.385-240 184.615-240Z"/></svg>