<svg width="20" height="20" xmlns="http://www.w3.org/2000/svg"><path d="M9.855 2.5c-1.63 0-3.108.274-4.208.741-.55.234-1.005.513-1.341.85-.336.338-.556.751-.556 1.2v9.418c0 .449.22.857.556 1.194.336.337.79.617 1.34.85 1.101.467 2.58.747 4.209.747 1.63 0 3.107-.28 4.207-.747.55-.233 1.005-.513 1.341-.85.336-.337.556-.745.556-1.194V5.291c0-.449-.22-.862-.556-1.2-.336-.337-.79-.616-1.34-.85-1.1-.467-2.579-.741-4.208-.741Zm0 .698c1.55 0 2.952.27 3.935.686.491.209.876.451 1.123.698.246.247.349.483.349.709 0 .226-.103.456-.35.703-.246.247-.63.489-1.122.697-.983.417-2.386.693-3.935.693-1.55 0-2.953-.276-3.936-.693-.491-.208-.876-.45-1.122-.697-.247-.247-.35-.477-.35-.703 0-.226.103-.462.35-.709.246-.247.63-.49 1.122-.698.983-.417 2.386-.686 3.936-.686ZM4.448 6.62c.318.278.723.512 1.199.714 1.1.466 2.578.746 4.208.746 1.63 0 3.107-.28 4.207-.746.476-.202.882-.436 1.2-.714v1.81c0 .225-.103.455-.35.702-.246.248-.63.49-1.122.698-.983.417-2.386.692-3.935.692-1.55 0-2.953-.275-3.936-.692-.491-.208-.876-.45-1.122-.698-.247-.247-.35-.477-.35-.703V6.62Zm0 3.14c.318.277.723.511 1.199.713 1.1.467 2.578.747 4.208.747 1.63 0 3.107-.28 4.207-.747.476-.202.882-.436 1.2-.714v1.81c0 .226-.103.456-.35.703-.246.247-.63.49-1.122.698-.983.417-2.386.692-3.935.692-1.55 0-2.953-.275-3.936-.692-.491-.209-.876-.45-1.122-.698-.247-.247-.35-.477-.35-.703V9.76Zm0 3.139c.318.278.723.512 1.199.714 1.1.467 2.578.746 4.208.746 1.63 0 3.107-.28 4.207-.746.476-.202.882-.436 1.2-.714v1.81c0 .225-.103.455-.35.702-.246.248-.63.49-1.122.698-.983.417-2.386.692-3.935.692-1.55 0-2.953-.275-3.936-.692-.491-.208-.876-.45-1.122-.698-.247-.247-.35-.477-.35-.703V12.9Z" fill="#FFF" fill-rule="evenodd"/></svg>