<svg width="16" height="14" xmlns="http://www.w3.org/2000/svg"><path d="M2.576.643a.502.502 0 0 1 .486.127L12.1 9.808l2.358 2.363a.5.5 0 0 1-.708.707l-2.082-2.09A7.393 7.393 0 0 1 8 11.86C3.935 11.86.734 7.715.602 7.538a.5.5 0 0 1 0-.605A13.781 13.781 0 0 1 4.48 3.607L2.357 1.485a.502.502 0 0 1 .22-.842Zm2.641 3.694a12.591 12.591 0 0 0-3.57 2.898c.795.92 3.378 3.625 6.353 3.625a6.25 6.25 0 0 0 2.935-.807L9.618 8.735A2.208 2.208 0 1 1 6.5 5.617ZM8 2.61c4.065 0 7.266 4.145 7.398 4.323a.5.5 0 0 1 0 .605c-.62.774-1.32 1.48-2.088 2.107a.5.5 0 1 1-.635-.772 13.891 13.891 0 0 0 1.678-1.638C13.558 6.315 10.975 3.61 8 3.61c-.324 0-.647.032-.965.092a.5.5 0 1 1-.185-.982A6.21 6.21 0 0 1 8 2.61Zm-.795 3.715a1.21 1.21 0 1 0 1.708 1.708Z" fill="#FFF" fill-rule="evenodd"/></svg>