<svg width="20" height="20" xmlns="http://www.w3.org/2000/svg"><path d="M10 5.625c4.068 0 7.266 4.145 7.398 4.323a.5.5 0 0 1 0 .605c-.132.177-3.33 4.323-7.398 4.323s-7.266-4.146-7.398-4.323a.5.5 0 0 1 0-.605C2.734 9.77 5.932 5.625 10 5.625Zm0 1c-2.983 0-5.56 2.703-6.353 3.625.793.92 3.378 3.626 6.353 3.626 2.983 0 5.56-2.703 6.353-3.626-.793-.92-3.37-3.625-6.353-3.625Zm0 1.413a2.213 2.213 0 1 1 0 4.425 2.213 2.213 0 0 1 0-4.425Zm.464 1.092a1.213 1.213 0 1 0-.928 2.24 1.213 1.213 0 0 0 .928-2.24Z" fill="#FFF" fill-rule="evenodd"/></svg>