<svg width="20" height="20" xmlns="http://www.w3.org/2000/svg"><path d="M6.787 10.872c-.787 0-1.427.64-1.427 1.426a1.428 1.428 0 0 0 2.852 0c0-.786-.639-1.426-1.425-1.426Zm0 2.282a.856.856 0 0 1 0-1.712.857.857 0 0 1 0 1.712Zm.515-4.924c0-.786-.64-1.426-1.426-1.426-.786 0-1.426.64-1.426 1.426 0 .787.64 1.426 1.426 1.426.786 0 1.426-.64 1.426-1.426Zm-2.282 0a.857.857 0 0 1 1.712 0 .857.857 0 0 1-1.712 0Zm11.547-2.043C15.32 3.947 12.742 2.5 10.002 2.5c-.502 0-1.002.05-1.487.148-4.018.814-6.549 4.486-5.889 8.543.56 3.445 3.735 6.144 7.227 6.144.66 0 1.169-.402 1.296-1.024.097-.476-.122-.83-.323-1.086-.326-.415-.378-.841-.158-1.304.217-.457.582-.687 1.116-.705.097-.004.194-.005.29-.005l.51.003.244-.002h.187l.262-.001c1.669-.018 3.183-1.066 3.768-2.608.533-1.405.372-2.891-.478-4.416Zm-.055 4.214c-.502 1.324-1.805 2.224-3.241 2.24h-.687l-.186.002-.323-.002a9.29 9.29 0 0 0-.31.005c-.746.025-1.304.38-1.612 1.03-.313.66-.235 1.317.224 1.902.194.246.254.419.213.618-.074.362-.343.569-.737.569-3.22 0-6.147-2.49-6.663-5.666-.61-3.748 1.727-7.14 5.438-7.892.447-.09.91-.137 1.374-.137 2.536 0 4.918 1.333 6.067 3.394.775 1.39.92 2.679.443 3.937Zm-6.78-5.87c-.786 0-1.426.639-1.426 1.425 0 .787.64 1.426 1.426 1.426.787 0 1.426-.64 1.426-1.426 0-.786-.64-1.426-1.426-1.426Zm0 2.28a.857.857 0 0 1 0-1.71.856.856 0 0 1 0 1.71Zm4.002-.31c-.786 0-1.426.639-1.426 1.425s.64 1.426 1.426 1.426c.786 0 1.426-.64 1.426-1.426 0-.786-.64-1.426-1.426-1.426Zm0 2.28a.857.857 0 0 1 0-1.71.857.857 0 0 1 0 1.71Z" fill="#FFF" fill-rule="evenodd" opacity=".7"/></svg>