<svg width="14" height="4" viewBox="0 0 14 4" fill="none" xmlns="http://www.w3.org/2000/svg">
<path d="M6.99989 0.00012207C6.10509 0.00012207 5.37646 0.72875 5.37646 1.62354C5.37646 2.51834 6.10509 3.24697 6.99989 3.24697C7.89468 3.24697 8.62331 2.51834 8.62331 1.62354C8.62331 0.72875 7.89468 0.00012207 6.99989 0.00012207Z" fill="white"/>
<path d="M12.3764 0.00012207C11.4816 0.00012207 10.7529 0.72875 10.7529 1.62354C10.7529 2.51834 11.4816 3.24697 12.3764 3.24697C13.2711 3.24697 13.9998 2.51834 13.9998 1.62354C13.9998 0.72875 13.2711 0.00012207 12.3764 0.00012207Z" fill="white"/>
<path d="M0 1.62342C0 2.51822 0.728628 3.24684 1.62342 3.24684C2.51822 3.24684 3.24684 2.51822 3.24684 1.62342C3.24684 0.728628 2.51822 0 1.62342 0C0.728628 0 0 0.728628 0 1.62342Z" fill="white"/>
</svg>
