<svg width="20" height="20" xmlns="http://www.w3.org/2000/svg"><path d="M16.96 2.5H3.033a.358.358 0 0 0-.357.357V17.143c0 .196.16.357.357.357H16.961c.196 0 .357-.16.357-.357V2.857a.358.358 0 0 0-.357-.357Zm-5 4.286v1.428H8.033V6.786h3.929Zm4.644 0v1.428h-3.929V6.786h3.929Zm0 3.571h-3.929V8.93h3.929v1.428Zm0 2.143h-3.929v-1.429h3.929V12.5ZM3.389 11.071h3.929V12.5H3.389v-1.429Zm0-2.142h3.929v1.428H3.389V8.93Zm4.643 0h3.929v1.428H8.032V8.93Zm0 2.142h3.929V12.5H8.032v-1.429Zm-.714-2.857H3.389V6.786h3.929v1.428Zm-3.929 5h3.929v1.429H3.389v-1.429Zm4.643 0h3.929v1.429H8.032v-1.429Zm4.643 0h3.929v1.429h-3.929v-1.429Zm-9.286-10h13.215v2.857H3.389V3.214Zm0 12.143h3.929v1.429H3.389v-1.429Zm4.643 0h3.929v1.429H8.032v-1.429Zm8.572 1.429h-3.929v-1.429h3.929v1.429Z" fill="#FFF" fill-rule="evenodd"/></svg>