<?xml version="1.0" encoding="UTF-8"?>
<svg width="20px" height="20px" viewBox="0 0 20 20" version="1.1" xmlns="http://www.w3.org/2000/svg" xmlns:xlink="http://www.w3.org/1999/xlink">
    <title>7DEDA047-244B-4366-AF42-401B2BA5D255</title>
    <g id="V2.2" stroke="none" stroke-width="1" fill="none" fill-rule="evenodd">
        <g id="Create-Enriched-Data_Error" transform="translate(-346.000000, -362.000000)" fill="#08A15C">
            <g id="Group-2" transform="translate(322.000000, 211.000000)">
                <g id="Icon/error-Copy" transform="translate(24.000000, 151.000000)">
                    <path d="M9.9925,2.5 C14.14,2.5 17.5,5.86 17.5,10 C17.5,14.14 14.14,17.5 9.9925,17.5 C5.8525,17.5 2.5,14.14 2.5,10 C2.5,5.86 5.8525,2.5 9.9925,2.5 Z M10,4 C6.685,4 4,6.685 4,10 C4,13.315 6.685,16 10,16 C13.315,16 16,13.315 16,10 C16,6.685 13.315,4 10,4 Z M13.446291,7.1875 L14.375,8.10851404 L9.71427684,12.7304045 L9.71384195,12.7299732 L9.00040383,13.4375 L5.625,10.0902792 L6.553709,9.16926517 L9.00083872,11.5961188 L13.446291,7.1875 Z" id="Combined-Shape"></path>
                </g>
            </g>
        </g>
    </g>
</svg>