<svg width="20" height="20" xmlns="http://www.w3.org/2000/svg"><path d="M12.19 2.5c.222 0 .42.143.49.354l.658 1.974h2.99a.517.517 0 0 1 0 1.034h-.94l-.743 11.155a.517.517 0 0 1-.516.483H5.853a.517.517 0 0 1-.516-.483L4.593 5.862h-.938a.517.517 0 0 1 0-1.034h2.989l.658-1.974a.517.517 0 0 1 .49-.354Zm2.162 3.362H5.63l.707 10.604h7.308l.707-10.604ZM9.991 7.917c.285 0 .517.232.517.517v5.963a.517.517 0 0 1-1.034 0V8.434c0-.285.231-.517.517-.517Zm-2.736.01a.518.518 0 0 1 .558.473l.495 5.945a.517.517 0 0 1-.472.558l-.044.002a.517.517 0 0 1-.515-.474l-.494-5.945a.517.517 0 0 1 .472-.559Zm5.504.007c.284.029.49.283.462.567l-.605 5.934a.517.517 0 1 1-1.029-.105l.605-5.934a.516.516 0 0 1 .567-.462Zm-.943-4.4h-3.65l-.432 1.294h4.513l-.43-1.294Z" fill="#FFF" fill-rule="evenodd"/></svg>